{"title":"Castle.2009.S04E20.HDTV.XviD-2HD.avi","uid":7155766,"size":366606054,"categoryP":"video","categoryS":"movies","magnet":"?xt=urn:btih:b058e653fba74fa3fa0a78958c645c53fd6e794f&amp;dn=Castle.2009.S04E20.HDTV.XviD-2HD.avi&amp;tr=udp%3A%2F%2Ftracker.openbittorrent.com%3A80&amp;tr=udp%3A%2F%2Fopen.demonii.com%3A1337&amp;tr=udp%3A%2F%2Ftracker.coppersurfer.tk%3A6969&amp;tr=udp%3A%2F%2Fexodus.desync.com%3A6969","seeders":1,"leechers":0,"uploader":"Tallyortoby","files":1,"time":1333450432,"description":"Format                           : AVI\nFormat/Info                      : Audio Video Interleave\nFile size                        : 350 MiB\nDuration                         : 41mn 56s\nOverall bit rate                 : 1 165 Kbps\nWriting application              : MEncoder SVN-r32669-4.3.2\nWriting library                  : MPlayer\n\nVideo\nID                               : 0\nFormat                           : MPEG-4 Visual\nFormat profile                   : Advanced Simple@L5\nFormat settings, BVOP            : Yes\nFormat settings, QPel            : No\nFormat settings, GMC             : No warppoints\nFormat settings, Matrix          : Default (H.263)\nMuxing mode                      : Packed bitstream\nCodec ID                         : XVID\nCodec ID/Hint                    : XviD\nDuration                         : 41mn 56s\nBit rate                         : 1 025 Kbps\nWidth                            : 624 pixels\nHeight                           : 352 pixels\nDisplay aspect ratio             : 16:9\nFrame rate                       : 23.976 fps\nColor space                      : YUV\nChroma subsampling               : 4:2:0\nBit depth                        : 8 bits\nScan type                        : Progressive\nBits/(Pixel*Frame)               : 0.195\nStream size                      : 308 MiB (88%)\nWriting library                  : XviD 64\n\nAudio\nID                               : 1\nFormat                           : MPEG Audio\nFormat version                   : Version 1\nFormat profile                   : Layer 3\nMode                             : Joint stereo\nMode extension                   : MS Stereo\nCodec ID                         : 55\nCodec ID/Hint                    : MP3\nDuration                         : 41mn 56s\nBit rate mode                    : Variable\nBit rate                         : 128 Kbps\nChannel(s)                       : 2 channels\nSampling rate                    : 48.0 KHz\nStream size                      : 38.2 MiB (11%)\nAlignment                        : Aligned on interleaves\nInterleave, duration             : 24 ms (0.58 video frame)\nInterleave, preload duration     : 525 ms","torrent":{"xt":"urn:btih:b058e653fba74fa3fa0a78958c645c53fd6e794f","amp;dn":"Castle.2009.S04E20.HDTV.XviD-2HD.avi","amp;tr":["udp%3A%2F%2Ftracker.openbittorrent.com%3A80","udp%3A%2F%2Fopen.demonii.com%3A1337","udp%3A%2F%2Ftracker.coppersurfer.tk%3A6969","udp%3A%2F%2Fexodus.desync.com%3A6969"],"infoHash":"b058e653fba74fa3fa0a78958c645c53fd6e794f","infoHashBuffer":{"type":"Buffer","data":[176,88,230,83,251,167,79,163,250,10,120,149,140,100,92,83,253,110,121,79]},"announce":[],"urlList":[]}}